<svg width="182" height="59" viewBox="0 0 182 59" fill="none" xmlns="http://www.w3.org/2000/svg">
<path d="M0.5 50C0.5 50.2761 0.723858 50.5 1 50.5H7.14879C8.91053 50.5 10.5565 50.1885 12.0813 49.5605L12.0828 49.5599C13.6103 48.9249 14.9463 48.0407 16.0864 46.9073L16.0864 46.9073C17.2357 45.7647 18.1279 44.4345 18.7619 42.9204C19.3984 41.4005 19.7143 39.7634 19.7143 38.0145C19.7143 36.2653 19.3934 34.6279 18.747 33.1078C18.1134 31.5851 17.2215 30.255 16.0719 29.1218C14.9326 27.9795 13.6019 27.0904 12.0839 26.4551C10.5584 25.8168 8.91157 25.5 7.14879 25.5H1C0.723858 25.5 0.5 25.7239 0.5 26V50ZM9.87148 45.4802L9.86993 45.4809C8.92138 45.8796 7.88097 46.0818 6.74274 46.0818H5.29949V29.9182H6.74274C7.87948 29.9182 8.91859 30.1247 9.8662 30.5321L9.86619 30.5321L9.87148 30.5343C10.8354 30.9356 11.6678 31.499 12.3735 32.2249L12.3735 32.2249L12.3779 32.2294C13.0917 32.9454 13.6448 33.794 14.0365 34.7808L14.0365 34.7808L14.038 34.7845C14.4372 35.7674 14.6393 36.8374 14.6393 38C14.6393 39.1728 14.437 40.2477 14.038 41.23L14.0371 41.2322C13.6454 42.2099 13.0917 43.0602 12.3757 43.7874L12.3735 43.7897C11.6678 44.5156 10.8354 45.0789 9.87148 45.4802ZM34.1602 50C34.1602 50.2761 34.384 50.5 34.6602 50.5H38.4597C38.7358 50.5 38.9597 50.2761 38.9597 50V41.0745H39.9084L46.9222 50.3026C47.0168 50.427 47.164 50.5 47.3203 50.5H52.1349C52.3271 50.5 52.5023 50.3898 52.5855 50.2166C52.6688 50.0434 52.6454 49.8378 52.5254 49.6877L45.1361 40.4472C46.0752 40.1688 46.9101 39.7595 47.6344 39.2149C48.5603 38.5259 49.2703 37.6565 49.7596 36.6125C50.259 35.558 50.5031 34.3784 50.5031 33.0836C50.5031 31.5268 50.1628 30.1625 49.4588 29.013C48.7666 27.867 47.7762 26.9932 46.505 26.3919C45.2449 25.7912 43.7764 25.5 42.1141 25.5H34.6602C34.384 25.5 34.1602 25.7239 34.1602 26V50ZM45.0147 35.1692L45.0137 35.1709C44.6763 35.699 44.182 36.1185 43.5067 36.4229C42.8312 36.7177 41.9997 36.8745 40.9975 36.8745H38.9597V29.5545H40.9975C42.5221 29.5545 43.6311 29.9023 44.3914 30.5308L44.3935 30.5325C45.1506 31.1517 45.5441 32.0139 45.5441 33.1855C45.5441 33.9782 45.3607 34.6322 45.0147 35.1692ZM103.605 50C103.605 50.2761 103.829 50.5 104.105 50.5H107.904C108.18 50.5 108.404 50.2761 108.404 50V34.1139L118.707 50.2689C118.799 50.4128 118.958 50.5 119.129 50.5H122.928C123.204 50.5 123.428 50.2761 123.428 50V26C123.428 25.7239 123.204 25.5 122.928 25.5H119.129C118.853 25.5 118.629 25.7239 118.629 26V41.8995L108.326 25.7313C108.234 25.5872 108.075 25.5 107.904 25.5H104.105C103.829 25.5 103.605 25.7239 103.605 26V50ZM139.559 50C139.559 50.2761 139.783 50.5 140.059 50.5H143.859C144.135 50.5 144.359 50.2761 144.359 50V26C144.359 25.7239 144.135 25.5 143.859 25.5H140.059C139.783 25.5 139.559 25.7239 139.559 26V50ZM157.707 49.7123C157.6 49.865 157.586 50.0647 157.672 50.2304C157.758 50.396 157.929 50.5 158.116 50.5H162.829C162.992 50.5 163.145 50.4203 163.239 50.2864L169.558 41.2438L175.877 50.2864C175.971 50.4203 176.124 50.5 176.287 50.5H181C181.187 50.5 181.358 50.3961 181.444 50.2306C181.53 50.065 181.516 49.8653 181.409 49.7126L172.517 37.0523L179.961 26.2843C180.067 26.1314 180.079 25.9325 179.993 25.7678C179.906 25.6032 179.736 25.5 179.55 25.5H174.996C174.832 25.5 174.678 25.5808 174.585 25.7161L169.558 33.0031L164.531 25.7161C164.438 25.5808 164.284 25.5 164.12 25.5H159.566C159.38 25.5 159.21 25.6032 159.123 25.768C159.037 25.9328 159.049 26.1318 159.155 26.2847L166.613 37.0523L157.707 49.7123Z" fill="white" stroke="white" stroke-linecap="round" stroke-linejoin="round"/>
<path d="M103.695 9.33423H92.4023C91.5873 9.33423 90.8329 9.76474 90.4181 10.4664L84.9588 19.7053H68.0412L62.5818 10.4664C62.1671 9.76474 61.4127 9.33423 60.5977 9.33423H49.3047C48.0318 9.33423 47 10.366 47 11.6389C47 12.9118 48.0318 13.9436 49.3047 13.9436H59.2825L61.0252 16.8927C58.5885 19.5276 54.0797 25.9016 54.0797 36.9905C54.0797 38.2634 55.1115 39.2952 56.3843 39.2952C57.6572 39.2952 58.689 38.2634 58.689 36.9905C58.689 31.7463 59.8096 27.1449 62.0193 23.3135C62.5293 22.4295 63.0417 21.691 63.5067 21.0921L64.7419 23.1824C65.1567 23.8841 65.9111 24.3146 66.7262 24.3146H74.1953V29.1824C69.5821 30.2332 66.1289 34.3683 66.1289 39.295C66.1289 45.0137 70.7814 49.6661 76.5 49.6661C82.2186 49.6661 86.8711 45.0137 86.8711 39.295C86.8711 34.3683 83.4178 30.2332 78.8047 29.1824V24.3147H86.2738C87.0889 24.3147 87.8433 23.8842 88.2581 23.1825L89.4944 21.0901C89.9195 21.6388 90.3856 22.3065 90.8564 23.101C92.4323 25.7609 94.311 30.3296 94.311 36.9905C94.311 38.2634 95.3428 39.2952 96.6157 39.2952C97.8885 39.2952 98.9203 38.2634 98.9203 36.9905C98.9203 25.9016 94.4113 19.5276 91.9747 16.8927L93.7174 13.9436H103.695C104.968 13.9436 106 12.9118 106 11.6389C106 10.366 104.968 9.33423 103.695 9.33423ZM82.2617 39.2952C82.2617 42.4722 79.677 45.0569 76.5 45.0569C73.323 45.0569 70.7383 42.4722 70.7383 39.2952C70.7383 36.1182 73.323 33.5334 76.5 33.5334C79.677 33.5334 82.2617 36.1182 82.2617 39.2952Z" fill="white"/>
<path d="M76.5 42.176C78.0911 42.176 79.3809 40.8862 79.3809 39.2952C79.3809 37.7041 78.0911 36.4143 76.5 36.4143C74.9089 36.4143 73.6191 37.7041 73.6191 39.2952C73.6191 40.8862 74.9089 42.176 76.5 42.176Z" fill="white"/>
</svg>
